<svg xmlns="http://www.w3.org/2000/svg" style="display: none;">
  <symbol id="icon-ritual" viewBox="0 0 24 24">
    <path d="M12 3v5" fill="none" stroke="currentColor" stroke-width="1.8" stroke-linecap="round"/>
    <path d="M12 8c4.4 0 8 3.6 8 8a8 8 0 1 1-16 0c0-2.6 1.2-4.9 3.2-6.4" fill="none" stroke="currentColor" stroke-width="1.8" stroke-linecap="round" stroke-linejoin="round"/>
    <path d="M12 12v4l2.8 1.6" fill="none" stroke="currentColor" stroke-width="1.8" stroke-linecap="round" stroke-linejoin="round"/>
  </symbol>

  <symbol id="icon-workshop" viewBox="0 0 24 24">
    <path d="M3 15.5 15.5 3a2.1 2.1 0 0 1 3 3L6 18.5 3 21l2.5-3z" fill="none" stroke="currentColor" stroke-width="1.8" stroke-linecap="round" stroke-linejoin="round"/>
    <path d="m14 5 5 5" fill="none" stroke="currentColor" stroke-width="1.8" stroke-linecap="round"/>
  </symbol>

  <symbol id="icon-vault" viewBox="0 0 24 24">
    <rect x="3" y="3" width="18" height="18" rx="3" fill="none" stroke="currentColor" stroke-width="1.8"/>
    <path d="M8 12h8" fill="none" stroke="currentColor" stroke-width="1.8" stroke-linecap="round"/>
    <circle cx="16" cy="12" r="1.6" fill="currentColor"/>
  </symbol>

  <symbol id="icon-essence" viewBox="0 0 24 24">
    <path d="M12 2c2.8 4.3 6 7.3 6 11a6 6 0 1 1-12 0c0-3.7 3.2-6.7 6-11z" fill="none" stroke="currentColor" stroke-width="1.8" stroke-linecap="round" stroke-linejoin="round"/>
    <path d="M9.8 14.2c.5 1.3 1.7 2.2 3.2 2.2" fill="none" stroke="currentColor" stroke-width="1.8" stroke-linecap="round"/>
  </symbol>

  <symbol id="icon-collection" viewBox="0 0 24 24">
    <path d="M12 3 4 7l8 4 8-4-8-4z" fill="none" stroke="currentColor" stroke-width="1.8" stroke-linejoin="round"/>
    <path d="M4 12l8 4 8-4" fill="none" stroke="currentColor" stroke-width="1.8" stroke-linecap="round" stroke-linejoin="round"/>
    <path d="M4 16.5l8 4 8-4" fill="none" stroke="currentColor" stroke-width="1.8" stroke-linecap="round" stroke-linejoin="round"/>
  </symbol>

  <symbol id="icon-timer" viewBox="0 0 24 24">
    <path d="M9 2h6" fill="none" stroke="currentColor" stroke-width="1.8" stroke-linecap="round"/>
    <path d="M12 5a8 8 0 1 1-8 8" fill="none" stroke="currentColor" stroke-width="1.8" stroke-linecap="round"/>
    <path d="M12 9v4l2.5 1.5" fill="none" stroke="currentColor" stroke-width="1.8" stroke-linecap="round" stroke-linejoin="round"/>
  </symbol>

  <symbol id="icon-lock" viewBox="0 0 24 24">
    <rect x="5" y="11" width="14" height="10" rx="2" fill="none" stroke="currentColor" stroke-width="1.8"/>
    <path d="M8 11V8a4 4 0 1 1 8 0v3" fill="none" stroke="currentColor" stroke-width="1.8" stroke-linecap="round"/>
  </symbol>

  <symbol id="icon-check" viewBox="0 0 24 24">
    <path d="m5 12.5 4.2 4.2L19 7" fill="none" stroke="currentColor" stroke-width="2" stroke-linecap="round" stroke-linejoin="round"/>
  </symbol>
</svg>
